# xmcd
#
# Track frame offsets:
#	182
#	12505
#	27192
#	38747
#	52160
#	67037
#	80260
#	95190
#	108270
#	119630
#	132157
#	142925
#	153192
#	168467
#	182330
#	195545
#	204290
#	214242
#	234390
#	246407
#
# Disc length: 3429
#
# Revision: 2
# Processed by: cddbd v1.5.1PL0 Copyright (c) Steve Scherf et al.
# Submitted via: audiograbber 1.83.01
# Normalized: r1:DSETVAR1
#
DISCID=170d6314
DTITLE=Various Artist - The Country Box 1/3
DYEAR=1995
DGENRE=Country
TTITLE0=Crystal Gayle - Don't It Make My Brown Eyes Blue
TTITLE1=Roger Miller - Me and Bobby McGee
TTITLE2=Patsey Cline - Walkin' After Midnight
TTITLE3=Kenny Rodgers - Ruby Don't Take Your Love To Town
TTITLE4=Billie Jo Spears - Midnight Love
TTITLE5=Don Williams - Where Do We Go From Here
TTITLE6=Jeannie C Riley - Harper Valley PTA
TTITLE7=Johnny Darrell - The Son of Hickory Holler's Tramp
TTITLE8=The Kendalls - Heaven's Just A Sin Away
TTITLE9=Johnny Cash - I Still Miss Someone
TTITLE10=Patsy Cline - I Can See An Angel
TTITLE11=Carl Perkins - Daddy Sang Bass
TTITLE12=Billie Jo Spears - Blanket On The Ground
TTITLE13=Charley Pride - Cant' Stop The Mississippi
TTITLE14=Wanda Jackson - I Fall To Pieces
TTITLE15=Waylon Jennings - Love's Gonna Live Here
TTITLE16=Crystal Gayle - Break My Mind
TTITLE17=Charlie Rich - You Don't Know Me
TTITLE18=Billie Jo Spears - Misty Blue
TTITLE19=Roger Miller - King Of The Road
EXTD=
EXTT0=
EXTT1=
EXTT2=
EXTT3=
EXTT4=
EXTT5=
EXTT6=
EXTT7=
EXTT8=
EXTT9=
EXTT10=
EXTT11=
EXTT12=
EXTT13=
EXTT14=
EXTT15=
EXTT16=
EXTT17=
EXTT18=
EXTT19=
PLAYORDER=
